<svg width="68" height="67" viewBox="0 0 68 67" fill="none" xmlns="http://www.w3.org/2000/svg">
<g opacity="0.8">
<path d="M45.6666 33.5C45.6665 30.9166 44.7707 28.4132 43.1318 26.4162C41.4929 24.4192 39.2123 23.0523 36.6786 22.5483C34.1448 22.0443 31.5147 22.4344 29.2363 23.6521C26.958 24.8698 25.1723 26.8398 24.1835 29.2265C23.1948 31.6132 23.0641 34.2688 23.8138 36.741C24.5636 39.2132 26.1473 41.349 28.2951 42.7845C30.443 44.22 33.0221 44.8663 35.593 44.6134C38.164 44.3605 40.5678 43.224 42.3948 41.3976C43.4321 40.3955 44.2566 39.1943 44.8188 37.8661C45.3809 36.5378 45.6693 35.1098 45.6666 33.6675L45.6638 33.4916L45.6666 33.5ZM51.6966 33.5C51.6832 37.4598 50.2981 41.2927 47.7769 44.3463C45.2557 47.3999 41.7543 49.4855 37.8686 50.2482C33.9829 51.0109 29.9529 50.4036 26.4645 48.5295C22.9761 46.6555 20.2449 43.6306 18.7357 39.9696C17.2264 36.3086 17.0324 32.2378 18.1867 28.4499C19.3409 24.6619 21.772 21.391 25.0664 19.1937C28.3607 16.9964 32.3146 16.0086 36.2553 16.3983C40.196 16.788 43.8798 18.5311 46.68 21.3311C48.2704 22.8739 49.5343 24.7208 50.3966 26.7619C51.2589 28.803 51.7019 30.9967 51.6994 33.2124L51.6966 33.5167V33.5ZM56.4061 15.6166V15.6221C56.4064 16.5522 56.0842 17.4536 55.4944 18.1727C54.9046 18.8919 54.0837 19.3842 53.1716 19.566C52.2595 19.7477 51.3125 19.6075 50.4922 19.1693C49.6718 18.7311 49.0287 18.022 48.6726 17.1629C48.3164 16.3037 48.2692 15.3476 48.5389 14.4575C48.8087 13.5674 49.3787 12.7984 50.1519 12.2815C50.9251 11.7646 51.8536 11.5318 52.7792 11.6227C53.7048 11.7136 54.5703 12.1227 55.2281 12.7802C55.9427 13.4809 56.3866 14.458 56.3866 15.5384V15.6193L56.4061 15.6166ZM34.5195 6.01322L31.1834 5.99089C29.1623 5.976 27.6278 5.976 26.58 5.99089C25.5322 6.00577 24.1289 6.04951 22.3701 6.12209C20.737 6.17793 19.1876 6.33984 17.6718 6.59668L17.8756 6.56876C16.6891 6.76418 15.6366 7.04334 14.6289 7.41464L14.7489 7.37555C13.3254 7.94829 12.0309 8.80007 10.9416 9.88073C9.85232 10.9614 8.99027 12.2491 8.40623 13.668L8.37831 13.7433C8.02038 14.7242 7.75494 15.7364 7.58548 16.7667L7.57152 16.87C7.32523 18.3372 7.17694 19.8191 7.12764 21.306L7.12485 21.3646C7.05227 23.1252 7.00853 24.5285 6.99364 25.5744C6.97876 26.6204 6.97876 28.1549 6.99364 30.1779C7.00853 32.2009 7.01598 33.3129 7.01598 33.5139C7.01598 33.7149 7.00853 34.8269 6.99364 36.85C6.97876 38.873 6.97876 40.4075 6.99364 41.4534C7.00853 42.4994 7.05227 43.9027 7.12485 45.6633C7.18069 47.2964 7.3426 48.8458 7.59944 50.3616L7.57152 50.1578C7.76694 51.3443 8.0461 52.3968 8.41739 53.4046L8.37831 53.2845C8.95105 54.708 9.80283 56.0025 10.8835 57.0918C11.9641 58.1811 13.2518 59.0431 14.6707 59.6272L14.7461 59.6551C15.6339 59.9873 16.6863 60.2665 17.7695 60.4479L17.8728 60.4619C19.1821 60.6908 20.7314 60.8527 22.3059 60.9058L22.3646 60.9086C24.1252 60.9811 25.5285 61.0249 26.5744 61.0398C27.6203 61.0547 29.1548 61.0547 31.1779 61.0398L34.4944 60.9728L37.8304 60.9951C39.8516 61.01 41.386 61.01 42.4339 60.9951C43.4817 60.9802 44.8849 60.9365 46.6437 60.8639C48.2768 60.8081 49.8262 60.6461 51.3421 60.3893L51.1383 60.4172C52.3247 60.2218 53.3772 59.9426 54.385 59.5714L54.2649 59.6104C55.6884 59.0377 56.9829 58.1859 58.0722 57.1053C59.1615 56.0246 60.0236 54.7369 60.6076 53.318L60.6355 53.2426C60.9677 52.3549 61.2469 51.3024 61.4284 50.2193L61.4423 50.116C61.6712 48.8067 61.8331 47.2573 61.8862 45.6828L61.889 45.6242C61.9616 43.8636 62.0053 42.4603 62.0202 41.4143C62.0351 40.3684 62.0351 38.8339 62.0202 36.8109C62.0053 34.7879 61.9979 33.6758 61.9979 33.4748C61.9979 33.2738 62.0053 32.1618 62.0202 30.1388C62.0351 28.1158 62.0351 26.5813 62.0202 25.5353C62.0053 24.4894 61.9616 23.0861 61.889 21.3255C61.8331 19.6924 61.6712 18.143 61.4144 16.6271L61.4423 16.8309C61.2645 15.7242 60.9812 14.637 60.5964 13.5842L60.6355 13.7043C60.0628 12.2808 59.211 10.9863 58.1303 9.89698C57.0497 8.80769 55.762 7.94564 54.3431 7.36159L54.2677 7.33368C53.2868 6.97574 52.2747 6.71031 51.2444 6.54084L51.1411 6.52689C49.6748 6.28072 48.1938 6.13243 46.7079 6.08301L46.6493 6.08022C44.8887 6.00764 43.4854 5.9639 42.4394 5.94901C41.3935 5.93412 39.859 5.93412 37.836 5.94901L34.5195 6.01322ZM67.9999 33.5C67.9999 40.159 67.9255 44.7681 67.7766 47.3271C67.9086 49.9205 67.4942 52.5127 66.5602 54.9357C65.6263 57.3587 64.1937 59.5585 62.3553 61.3924C60.5169 63.2264 58.3136 64.6536 55.8884 65.5816C53.4631 66.5096 50.8699 66.9177 48.2768 66.7794L48.3215 66.7822C45.7625 66.9311 41.1534 67.0056 34.4944 67.0056C27.8353 67.0056 23.2263 66.9311 20.6672 66.7822C18.0738 66.9142 15.4816 66.4998 13.0586 65.5659C10.6356 64.6319 8.43585 63.1994 6.6019 61.3609C4.76795 59.5225 3.34073 57.3193 2.41272 54.894C1.48471 52.4687 1.07662 49.8755 1.21489 47.2824L1.2121 47.3271C1.06321 44.7681 0.98877 40.159 0.98877 33.5C0.98877 26.8409 1.06321 22.2319 1.2121 19.6728C1.08014 17.0794 1.49455 14.4872 2.42847 12.0642C3.36239 9.64122 4.79497 7.44146 6.6334 5.60751C8.47182 3.77356 10.6751 2.34634 13.1003 1.41833C15.5256 0.490322 18.1188 0.0822327 20.7119 0.22051L20.6672 0.217718C23.2263 0.0688292 27.8353 -0.00561523 34.4944 -0.00561523C41.1534 -0.00561523 45.7625 0.0688292 48.3215 0.217718C50.9149 0.0857601 53.5071 0.500167 55.9301 1.43408C58.3531 2.368 60.5529 3.80059 62.3868 5.63901C64.2208 7.47744 65.648 9.68068 66.576 12.106C67.504 14.5312 67.9121 17.1244 67.7738 19.7175L67.7766 19.6728C67.9255 22.23 67.9999 26.8391 67.9999 33.5Z" fill="black"/>
</g>
</svg>
