<svg width="67" height="67" viewBox="0 0 67 67" fill="none" xmlns="http://www.w3.org/2000/svg">
<path d="M55.3457 0.605713C58.2631 0.605713 61.061 1.76464 63.1239 3.82754C65.1868 5.89044 66.3457 8.68833 66.3457 11.6057V55.6057C66.3457 58.5231 65.1868 61.321 63.1239 63.3839C61.061 65.4468 58.2631 66.6057 55.3457 66.6057H11.3457C8.42832 66.6057 5.63043 65.4468 3.56753 63.3839C1.50463 61.321 0.345703 58.5231 0.345703 55.6057V11.6057C0.345703 8.68833 1.50463 5.89044 3.56753 3.82754C5.63043 1.76464 8.42832 0.605713 11.3457 0.605713H55.3457ZM55.3457 7.93905H11.3457C10.3732 7.93905 9.44061 8.32536 8.75298 9.01299C8.06535 9.70062 7.67904 10.6333 7.67904 11.6057V55.6057C7.67904 56.5782 8.06535 57.5108 8.75298 58.1984C9.44061 58.8861 10.3732 59.2724 11.3457 59.2724H55.3457C56.3182 59.2724 57.2508 58.8861 57.9384 58.1984C58.6261 57.5108 59.0124 56.5782 59.0124 55.6057V11.6057C59.0124 10.6333 58.6261 9.70062 57.9384 9.01299C57.2508 8.32536 56.3182 7.93905 55.3457 7.93905ZM18.679 26.2724C19.5771 26.2725 20.4439 26.6022 21.1151 27.199C21.7862 27.7958 22.215 28.6181 22.32 29.5101L22.3457 29.939V48.2724C22.3447 49.2069 21.9868 50.1058 21.3453 50.7854C20.7037 51.465 19.8269 51.8739 18.8939 51.9287C17.961 51.9834 17.0423 51.6799 16.3257 51.0801C15.609 50.4803 15.1484 49.6294 15.038 48.7014L15.0124 48.2724V29.939C15.0124 28.9666 15.3987 28.034 16.0863 27.3463C16.7739 26.6587 17.7066 26.2724 18.679 26.2724ZM29.679 22.6057C30.5378 22.6056 31.3693 22.9068 32.0286 23.457C32.688 24.0071 33.1333 24.7712 33.287 25.616C34.0256 25.1895 34.7883 24.8063 35.5714 24.4684C38.017 23.4234 41.68 22.8477 44.9874 23.8854C46.7217 24.4354 48.4634 25.462 49.754 27.211C50.909 28.7694 51.5324 30.665 51.657 32.7954L51.679 33.6057V48.2724C51.678 49.2069 51.3202 50.1058 50.6786 50.7854C50.037 51.465 49.1602 51.8739 48.2273 51.9287C47.2943 51.9834 46.3756 51.6799 45.659 51.0801C44.9423 50.4803 44.4818 49.6294 44.3714 48.7014L44.3457 48.2724V33.6057C44.3457 32.3957 44.0524 31.831 43.8617 31.5707C43.5877 31.2307 43.2107 30.9888 42.7874 30.8814C41.5114 30.478 39.6744 30.6907 38.4534 31.2114C36.62 31.996 34.9407 33.228 33.7967 34.3684L33.3457 34.8524V48.2724C33.3447 49.2069 32.9868 50.1058 32.3453 50.7854C31.7037 51.465 30.8269 51.8739 29.8939 51.9287C28.961 51.9834 28.0423 51.6799 27.3257 51.0801C26.609 50.4803 26.1484 49.6294 26.038 48.7014L26.0124 48.2724V26.2724C26.0124 25.2999 26.3987 24.3673 27.0863 23.6797C27.7739 22.992 28.7066 22.6057 29.679 22.6057ZM18.679 15.2724C19.6515 15.2724 20.5841 15.6587 21.2718 16.3463C21.9594 17.034 22.3457 17.9666 22.3457 18.939C22.3457 19.9115 21.9594 20.8441 21.2718 21.5318C20.5841 22.2194 19.6515 22.6057 18.679 22.6057C17.7066 22.6057 16.7739 22.2194 16.0863 21.5318C15.3987 20.8441 15.0124 19.9115 15.0124 18.939C15.0124 17.9666 15.3987 17.034 16.0863 16.3463C16.7739 15.6587 17.7066 15.2724 18.679 15.2724Z" fill="black"/>
</svg>
