<svg width="67" height="67" viewBox="0 0 67 67" fill="none" xmlns="http://www.w3.org/2000/svg">
<path d="M3.8125 33.5C3.8125 19.5062 3.8125 12.5063 8.15938 8.15938C12.5063 3.8125 19.5031 3.8125 33.5031 3.8125C47.4969 3.8125 54.4937 3.8125 58.8406 8.15938C63.1875 12.5063 63.1875 19.5031 63.1875 33.5C63.1875 47.4938 63.1875 54.4937 58.8406 58.8406C54.4937 63.1875 47.4969 63.1875 33.5 63.1875C19.5062 63.1875 12.5094 63.1875 8.15938 58.8406C3.81563 54.4906 3.8125 47.4969 3.8125 33.5Z" stroke="black" stroke-width="6.25" stroke-linecap="round" stroke-linejoin="round"/>
<path d="M17.875 49.125L30.9812 36.0219M30.9812 36.0219L17.875 17.875H26.5531L36.0219 30.9812L49.125 17.875M30.9812 36.0219L40.4437 49.125H49.125L36.0219 30.9781" stroke="black" stroke-width="6.25" stroke-linecap="round" stroke-linejoin="round"/>
</svg>
